<svg xmlns="http://www.w3.org/2000/svg" xmlns:xlink="http://www.w3.org/1999/xlink" viewBox="0 0 1366 767.52"><defs><style>.cls-1{fill:#b3b3b3;opacity:0.2;}.cls-2{fill:url(#linear-gradient);}.cls-3{fill:url(#linear-gradient-2);}.cls-4{opacity:0.23;}.cls-5{fill:#5e97b7;opacity:0.16;}</style><linearGradient id="linear-gradient" x1="1386.37" y1="116.52" x2="749.64" y2="466.47" gradientUnits="userSpaceOnUse"><stop offset="0" stop-color="#d7ede1"/><stop offset="0.06" stop-color="#bdd9d4"/><stop offset="0.19" stop-color="#8cb3ba"/><stop offset="0.32" stop-color="#6192a4"/><stop offset="0.45" stop-color="#3e7792"/><stop offset="0.58" stop-color="#236384"/><stop offset="0.72" stop-color="#10547a"/><stop offset="0.86" stop-color="#054b74"/><stop offset="1" stop-color="#014872"/></linearGradient><linearGradient id="linear-gradient-2" x1="1287.87" y1="-183.56" x2="1009.33" y2="117.76" xlink:href="#linear-gradient"/></defs><title>background (2)</title><g id="Layer_2" data-name="Layer 2"><g id="Layer_1-2" data-name="Layer 1"><g id="background"><path class="cls-1" d="M1366,251.59V767.34a501,501,0,0,1-71-3.28c-41.6-4.77-56.14-15.24-59.34-17.66-12.64-9.57-14.6-19.57-14.74-29.75,0-.33,0-.66,0-1,0-.79,0-1.58,0-2.38,0-1.7.08-3.41.1-5.13,0-.79,0-1.59,0-2.39v-.41c0-.3,0-.61,0-.92-.07-9.53-1.6-19.15-11.64-28.67-30.77-29.2-97.57-15.68-113-43a20.71,20.71,0,0,1-2.71-10.32c.08-5.14,1.47-10.17,1.41-15.47s-1.21-10.92-6.69-17.2c-7.92-9.08-20.11-14.44-30.06-17.66-.84-.26-1.67-.53-2.46-.76-17.89-8.12-23.13-16.24-25.63-21.8a19.31,19.31,0,0,1-1.83-7.68c.34-13.23,16.14-21.84,15.87-36.67a21.41,21.41,0,0,0-.71-5.9c-2.46-9.63-10.51-17.13-22.38-23.33-1.59-.83-3.24-1.63-4.94-2.42-1.9-.86-3.89-1.7-5.93-2.52l-.06,0-.3-.12-8.47-3.12h0c-2.16-.73-4.39-1.45-6.66-2.16-9.09-2.8-19.06-5.35-29.62-7.83-17-4-35.38-7.73-53.93-11.9-50.38-11.35-101.68-25.79-127-56.39-8.81-10.65-12.14-20.41-12.23-29.79.19-26.62,26-50.3,25.8-82.52.05-9.21-2-19.1-7.38-30-44.77-90.36-236.51-79.62-302.85-177.15A113.87,113.87,0,0,1,467.45,6.63c0-.49,0-1,0-1.45,0-1,0-1.95,0-2.92,0-.75,0-1.51.08-2.26H816.91c.86,15.81,5.51,31.73,16.39,45.56,18.31,23.3,47.34,31.93,64.77,37.69,105.27,34.76,129,77.47,197.42,114.11h0l.93.5h0c8.18,4.35,17,8.61,26.68,12.77,8,3.45,16.74,6.86,26,10.15h0l1,.36h0C1209.25,242,1290.62,258.24,1366,251.59Z"/><path class="cls-2" d="M1366,235.26V719.85a468.31,468.31,0,0,1-67.63-3.06c-39.09-4.48-52.75-14.31-55.76-16.59-11.87-9-13.71-18.38-13.84-28,0-.31,0-.62,0-.93,0-.74,0-1.48,0-2.23,0-1.6.07-3.21.09-4.82q0-1.12,0-2.25v-.38c0-.29,0-.58,0-.87-.07-8.95-1.5-18-10.94-26.93-28.9-27.44-91.67-14.74-106.15-40.4a19.37,19.37,0,0,1-2.54-9.7c.07-4.83,1.38-9.55,1.32-14.53s-1.14-10.26-6.29-16.16c-7.44-8.53-18.89-13.57-28.23-16.59-.8-.25-1.57-.5-2.32-.72-16.81-7.63-21.73-15.26-24.08-20.48a18.08,18.08,0,0,1-1.72-7.21c.32-12.43,15.17-20.52,14.91-34.46a20,20,0,0,0-.67-5.54c-2.31-9.05-9.87-16.09-21-21.92-1.5-.78-3-1.53-4.65-2.27q-2.67-1.22-5.57-2.37l-.06,0a1.69,1.69,0,0,0-.27-.11l-8-2.93h0c-2-.69-4.12-1.36-6.26-2-8.54-2.63-17.91-5-27.82-7.36-15.93-3.74-33.24-7.26-50.67-11.18-47.33-10.66-95.53-24.23-119.33-53-8.28-10-11.42-19.17-11.51-28,.18-25,24.45-47.26,24.25-77.53.05-8.65-1.87-18-6.93-28.16-42.07-84.89-222.2-74.8-284.53-166.43A107,107,0,0,1,520.92,5.19c0-.46,0-.92,0-1.37,0-.92,0-1.83,0-2.74,0-.36,0-.72,0-1.08H849.31c.94,14.51,5.36,29.07,15.33,41.76,17.21,21.89,44.49,30,60.86,35.41C1036.63,113.87,1051.08,160,1137,196.86a469,469,0,0,0,60.18,20.75h0l1.14.31h0c38.61,10.52,83.09,18.11,127.31,18.77h.56A381.61,381.61,0,0,0,1366,235.26Z"/><path class="cls-3" d="M1366,0V235.21c-1.54.11-3.09.2-4.62.29l-2.15.12c-.32,0-.64,0-1,.06l-3.65.19q-2.25.12-4.53.21l-2.9.12c-7,.28-14,.44-21,.52H1322c-1.56,0-3.14,0-4.71,0l-4.4,0c-2.35,0-4.71,0-7.07-.08l-3.84-.07q-19.1-.39-38.11-1.62l-5.42-.36-5.41-.4c-1.8-.13-3.59-.27-5.39-.42l-5.38-.46q-8.74-.75-17.41-1.67l-4.37-.47-3.7-.41-3.14-.37-4.72-.56-4.7-.58-3.73-.48q-6-.76-11.85-1.6l-4.12-.6q-5.54-.81-11-1.66c-1.87-.3-3.72-.59-5.58-.9-1.65-.26-3.29-.54-4.93-.81l-.28-.05-3.47-.59c-3.37-.57-6.74-1.17-10.06-1.77h0l-5.38-1q-7.37-1.38-14.51-2.84l-4-.83c-2.69-.55-5.34-1.11-8-1.69l-4-.86c-3.11-.68-6.2-1.38-9.24-2.09-1.29-.29-2.55-.59-3.82-.89l-4.54-1.09-3.12-.76c-2.81-.69-5.59-1.38-8.33-2.09q-3.46-.88-6.84-1.79c-1-.26-2-.52-3-.79l-5.32-1.45c-2.17-.61-4.31-1.21-6.41-1.82-4.55-1.31-9-2.63-13.23-4C931.11,160,911.18,113.87,758,77.17c-22.57-5.41-60.17-13.52-83.89-35.41a74,74,0,0,1-5.35-5.46c-.19-.2-.37-.41-.54-.62-.43-.5-.86-1-1.27-1.51l-.25-.3q-.39-.48-.75-1t-.69-.9c-.33-.44-.66-.88-1-1.32s-.79-1.13-1.16-1.69c-.26-.38-.5-.76-.73-1.14-1-1.59-2-3.19-2.78-4.8-.26-.5-.52-1-.76-1.51s-.48-1-.7-1.51-.38-.87-.56-1.3c-.46-1.09-.89-2.18-1.28-3.28-.18-.51-.36-1-.52-1.53-.51-1.55-.94-3.1-1.31-4.65-.12-.51-.24-1-.35-1.53-.22-1-.43-2.08-.59-3.11s-.32-2.07-.43-3.11C653,1,653,.51,652.94,0Z"/><path class="cls-4" d="M1366,226.88v8.26l-.39,0c-1.75.12-3.49.23-5.24.33l-2.15.12c-.32,0-.64,0-1,.06l-3.65.19c-1.51.08-3,.15-4.53.21l-2.9.12q-10.15.41-20.41.51H1322c-1.56,0-3.14,0-4.71,0l-4.4,0h-1c-2.35,0-4.71,0-7.07-.08l-3.84-.07c-12.73-.26-25.46-.81-38.11-1.62l-5.42-.36-5.41-.4c-1.8-.13-3.6-.27-5.39-.42l-5.38-.46q-8.74-.75-17.42-1.67l-4.36-.47-3.71-.41-3.14-.37-4.71-.56-4.7-.58-3.73-.48q-6-.76-11.86-1.6l-4.11-.6q-5.55-.81-11-1.66c-1.87-.3-3.73-.59-5.58-.9-1.65-.26-3.3-.54-4.93-.81l-.28-.05-3.48-.59c-2.68-.45-5.36-.93-8-1.4h0l-2-.36h0l-5.38-1q-7.37-1.38-14.51-2.84l-4-.83q-4-.82-8-1.69l-3.94-.86c-3.11-.68-6.21-1.38-9.25-2.09l-3.81-.89-4.55-1.09-3.12-.76c-2.81-.69-5.59-1.38-8.33-2.09q-3.46-.88-6.83-1.79c-1-.26-2-.52-3-.79l-5.32-1.45c-2.17-.61-4.31-1.21-6.42-1.82-4.54-1.31-9-2.63-13.23-4C930.1,160,910.18,113.87,757,77.17c-22.56-5.41-60.17-13.52-83.88-35.41a72.06,72.06,0,0,1-5.35-5.46c-.19-.2-.38-.41-.55-.62-.43-.5-.85-1-1.26-1.51l-.25-.3q-.39-.48-.75-1c-.24-.3-.48-.6-.7-.9s-.65-.88-1-1.32-.79-1.13-1.16-1.69c-.27-.38-.51-.76-.74-1.14-1-1.59-1.94-3.19-2.78-4.8-.26-.5-.51-1-.75-1.51s-.48-1-.7-1.51-.38-.87-.56-1.3c-.47-1.09-.9-2.18-1.28-3.28-.18-.51-.36-1-.52-1.53-.51-1.55-.94-3.1-1.32-4.65-.12-.51-.24-1-.35-1.53-.22-1-.42-2.08-.58-3.11s-.31-2.08-.43-3.11C652,1,652,.51,651.94,0h13.91c2.7,11.46,8.78,22.7,19.69,32.76,23.72,21.89,61.32,30,83.89,35.41,153.21,36.7,173.13,82.83,291.5,119.69,10.37,3.23,21.6,6.42,33.55,9.5h0l1.94.5h0a973.89,973.89,0,0,0,99.66,19.73h0l2.15.31h0c53.36,7.66,111.38,11.7,167.29,9Z"/><path class="cls-5" d="M383.67,0c-24.95,37.18-59.89,73.43-87.13,101.72C216.94,184.34,104.5,262.35,0,309.62V0Z"/><path class="cls-4" d="M1366,700v19.87a468.31,468.31,0,0,1-67.63-3.06c-39.09-4.48-52.75-14.31-55.76-16.59-11.87-9-13.71-18.38-13.84-28,0-.31,0-.62,0-.93,0-.74,0-1.48,0-2.23,0-1.6.07-3.21.09-4.82q0-1.12,0-2.25v-.38c0-.29,0-.58,0-.87-.07-8.95-1.5-18-10.94-26.93-28.9-27.44-91.67-14.74-106.15-40.4a19.37,19.37,0,0,1-2.54-9.7c.07-4.83,1.38-9.55,1.32-14.53s-1.14-10.26-6.29-16.16c-7.44-8.53-18.89-13.57-28.23-16.59-.8-.25-1.57-.5-2.32-.72-16.81-7.63-21.73-15.26-24.08-20.48a18.08,18.08,0,0,1-1.72-7.21c.32-12.43,15.17-20.52,14.91-34.46a20,20,0,0,0-.67-5.54c-2.31-9.05-9.87-16.09-21-21.92-1.5-.78-3-1.53-4.65-2.27q-2.67-1.22-5.57-2.37l-.06,0a1.69,1.69,0,0,0-.27-.11l-8-2.93h0c-2-.69-4.12-1.36-6.26-2-8.54-2.63-17.91-5-27.82-7.36-15.93-3.74-33.24-7.26-50.67-11.18-47.33-10.66-95.53-24.23-119.33-53-8.28-10-11.42-19.17-11.51-28,.18-25,24.45-47.26,24.25-77.53.05-8.65-1.87-18-6.93-28.16-42.07-84.89-222.2-74.8-284.53-166.43A107,107,0,0,1,520.92,5.19c0-.46,0-.92,0-1.37,0-.92,0-1.83,0-2.74,0-.36,0-.72,0-1.08H542.2a107,107,0,0,0,17.71,44.78c62.33,91.63,242.47,81.54,284.53,166.43,5.06,10.21,7,19.51,6.94,28.16.2,30.27-24.07,52.52-24.25,77.53.09,8.81,3.22,18,11.5,28,23.81,28.75,72,42.32,119.33,53,17.43,3.92,34.74,7.44,50.67,11.18,9.92,2.33,19.28,4.73,27.82,7.36,2.14.67,4.23,1.34,6.26,2h0l8,2.93a1.69,1.69,0,0,1,.27.11l.06,0c1.93.77,3.8,1.56,5.57,2.37,1.61.74,3.16,1.49,4.65,2.27,11.15,5.83,18.71,12.87,21,21.92a20.31,20.31,0,0,1,.66,5.54c.26,13.94-14.58,22-14.9,34.46a18.22,18.22,0,0,0,1.71,7.21c2.35,5.22,7.27,12.85,24.08,20.48.75.22,1.53.47,2.32.72,9.34,3,20.79,8.06,28.23,16.59,5.15,5.9,6.35,11.15,6.29,16.16s-1.25,9.7-1.32,14.53a19.37,19.37,0,0,0,2.54,9.7c14.48,25.66,77.25,13,106.16,40.4,9.43,8.94,10.87,18,10.94,26.93,0,.29,0,.58,0,.87V642q0,1.13,0,2.25c0,1.61-.06,3.22-.09,4.82,0,.75,0,1.49,0,2.23,0,.31,0,.62,0,.93.13,9.57,2,19,13.84,28,3,2.28,16.67,12.11,55.75,16.59A476.49,476.49,0,0,0,1366,700Z"/></g></g></g></svg>